<svg version="1.1" viewBox="0 0 800 200" xmlns="http://www.w3.org/2000/svg">
 <path class="tw-fill-text-alt2" d="m457.16 129.39-11.407-36.49q-1.0783-3.3482-4.0292-15.209h-.454q-2.27 9.9313-3.9725 15.322l-11.747 36.377h-10.896l-16.968-62.197h9.8744q6.0158 23.438 9.137 35.696 3.178 12.258 3.632 16.514h.454q.62424-3.2347 1.9863-8.342 1.4188-5.1642 2.4402-8.1717l11.407-35.696h10.215l11.123 35.696q3.178 9.7611 4.313 16.401h.454q.227-2.043 1.1918-6.2993 1.0215-4.2562 11.861-45.797h9.7611l-17.195 62.197zm77.858 0-1.8727-8.8528h-.454q-4.6535 5.8455-9.3072 7.9451-4.5968 2.043-11.52 2.043-9.2503 0-14.528-4.767-5.221-4.767-5.221-13.563 0-18.841 30.134-19.749l10.555-.3405v-3.859q0-7.3209-3.178-10.783-3.1212-3.5185-10.045-3.5185-7.7748 0-17.592 4.767l-2.8943-7.207q4.5968-2.497 10.045-3.9158 5.5048-1.4187 11.009-1.4187 11.123 0 16.457 4.9373 5.3912 4.9373 5.3912 15.833v42.449zm-21.281-6.6399q8.7964 0 13.79-4.8238 5.0508-4.8238 5.0508-13.506v-5.6183l-9.4205.39725q-11.237.39725-16.231 3.5185-4.9372 3.0645-4.9372 9.5908 0 5.1075 3.0645 7.7748 3.1212 2.6672 8.6825 2.6672zm76.045-56.693q4.1428 0 7.4343.68101l-1.3053 8.7395q-3.859-.85122-6.8101-.85122-7.5476 0-12.939 6.1291-5.3345 6.1291-5.3345 15.266v33.369h-9.4205v-62.197h7.7748l1.0783 11.52h.454q3.4617-6.0721 8.3425-9.3636 4.8805-3.2915 10.726-3.2915zm59.077 54.991h-.51081q-6.526 9.4775-19.522 9.4775-12.201 0-19.011-8.342-6.7532-8.342-6.7532-23.721t6.8102-23.892q6.8101-8.5122 18.954-8.5122 12.655 0 19.408 9.1933h.73779l-.39725-4.4832-.22704-4.3697v-25.311h9.4205v88.301h-7.6615zm-18.841 1.589q9.6478 0 13.96-5.221 4.3697-5.2777 4.3697-16.968v-1.9863q0-13.223-4.4264-18.841-4.3698-5.675-14.017-5.675-8.2856 0-12.712 6.4696-4.3698 6.4127-4.3698 18.16 0 11.918 4.3698 17.99 4.3697 6.0721 12.825 6.0721zm74 7.8881q-13.79 0-21.792-8.3989-7.9451-8.3989-7.9451-23.324 0-15.039 7.3773-23.892 7.4343-8.8528 19.919-8.8528 11.69 0 18.501 7.7179 6.8101 7.6615 6.8101 20.26v5.9588h-42.846q.28376 10.953 5.5048 16.628 5.2777 5.675 14.812 5.675 10.045 0 19.863-4.1995v8.3989q-4.994 2.1565-9.4775 3.0645-4.4265.96478-10.726.96478zm-2.5537-56.58q-7.4912 0-11.975 4.8805-4.4265 4.8805-5.221 13.506h32.518q0-8.9097-3.9725-13.62-3.9725-4.767-11.35-4.767zm84.047 55.445v-40.236q0-7.6045-3.4617-11.35-3.4618-3.7455-10.839-3.7455-9.7611 0-14.301 5.2777t-4.54 17.422v32.631h-9.4205v-62.197h7.6615l1.5322 8.5122h.45403q2.8942-4.5968 8.1153-7.0937 5.221-2.5537 11.634-2.5537 11.237 0 16.912 5.448 5.675 5.3912 5.675 17.309v40.576z"/>
 <path class="tw-fill-text-alt2" d="m213.24 129.39-3.3482-8.6261h-.454q-4.3697 5.5048-9.023 7.6615-4.5968 2.0998-12.031 2.0998-9.137 0-14.415-5.221-5.221-5.221-5.221-14.869 0-10.102 7.0368-14.869 7.0937-4.8238 21.338-5.3345l11.009-.3405v-2.7808q0-9.6478-9.8744-9.6478-7.6045 0-17.876 4.5968l-5.7318-11.69q10.953-5.7318 24.289-5.7318 12.769 0 19.579 5.5615 6.8102 5.5615 6.8102 16.912v42.279zm-5.1075-29.397-6.6962.227q-7.5476.227-11.237 2.724-3.6888 2.497-3.6888 7.6045 0 7.321 8.3989 7.321 6.0158 0 9.5908-3.4617 3.632-3.4617 3.632-9.1933zm79.962 29.397-2.3268-8.1153h-.908q-2.7808 4.4265-7.8881 6.8665-5.1075 2.3835-11.634 2.3835-11.18 0-16.855-5.9588-5.675-6.0158-5.675-17.252v-41.371h17.309v37.058q0 6.8665 2.4402 10.328 2.4402 3.405 7.7748 3.405 7.264 0 10.499-4.8238 3.2348-4.8805 3.2348-16.117v-29.85h17.309v63.447zm48.748 0h-17.309v-88.301h17.309zm44.889-12.655q4.54 0 10.896-1.9863v12.882q-6.4696 2.8943-15.89 2.8943-10.385 0-15.152-5.221-4.7103-5.2777-4.7103-15.776v-30.588h-8.2856v-7.321l9.5338-5.7885 4.994-13.393h11.066v13.506h17.763v12.996h-17.763v30.588q0 3.6887 2.043 5.448 2.0998 1.7592 5.5047 1.7592z"/>
 <path class="tw-fill-text-alt2" d="m51.982 33.947-15.322.002 41.131 115.17h14.518l41.131-115.17h-15.162l-25.971 73.872c-1.7205 4.7315-3.1706 9.1927-4.3535 13.387-1.1829 4.086-2.1516 8.0119-2.9043 11.775-.75272-3.7636-1.7195-7.7417-2.9023-11.936-1.1829-4.1938-2.635-8.7098-4.3555-13.549l-25.809-73.552z"/>
 <path class="tw-fill-text-alt2" d="m84.264 5.0749a2.3288 2.3288 0 00-1.2122.99654l-4.145 6.9077c-.72599.06029-1.4502.12529-2.1701.20657l-5.406-5.9599a2.3288 2.3288 0 00-3.9203.77975l-2.7161 7.5796c-.7008.20184-1.4008.40458-2.0929.62653l-6.4616-4.7875a2.3288 2.3288 0 00-3.691 1.53l-1.1884 7.9871c-.63834.33084-1.2749.66363-1.9023 1.0124l-7.297-3.4482a2.3288 2.3288 0 00-3.3222 2.2201l.39272 8.0937c-.55229.44111-1.0997.8874-1.639 1.3438l-7.8588-1.9647a2.3288 2.3288 0 00-2.825 2.825l1.9647 7.8588c-.45646.53923-.90273 1.0867-1.3439 1.639l-8.0937-.39271a2.3288 2.3288 0 00-2.2201 3.3222l3.4482 7.297c-.3488.62737-.68158 1.2639-1.0124 1.9023l-7.9871 1.1884a2.3288 2.3288 0 00-1.53 3.6911l4.7875 6.4616c-.22196.69217-.4247 1.3921-.62653 2.093l-7.5796 2.7161a2.3288 2.3288 0 00-.77976 3.9203l5.9599 5.4061c-.08128.71995-.14628 1.4442-.20657 2.1701l-6.9077 4.1451a2.3288 2.3288 0 000 3.9952l6.9077 4.1439c.06028.72636.12524 1.451.20657 2.1713l-5.9599 5.4061a2.3288 2.3288 0 00.77976 3.9192l7.5796 2.7161c.20188.70099.4045 1.4017.62653 2.0941l-4.7875 6.4605a2.3288 2.3288 0 001.53 3.6922l7.9871 1.1884c.33079.63822.6637 1.275 1.0124 1.9023l-3.4482 7.297a2.3288 2.3288 0 002.2201 3.3222l8.0937-.39272c.44117.55235.88734 1.0997 1.3439 1.639l-1.9647 7.8588a2.3288 2.3288 0 002.825 2.825l7.8588-1.9647c.53923.45647 1.0867.90273 1.639 1.3438l-.39272 8.0926a2.3288 2.3288 0 003.3222 2.2201l7.297-3.447c.62736.34881 1.2639.68158 1.9023 1.0124l1.1884 7.987a2.3288 2.3288 0 003.691 1.5289l6.4616-4.7864c.69217.22197 1.3921.4247 2.0929.62654l2.7161 7.5796a2.3288 2.3288 0 003.9203.7786l5.4049-5.9588c.72031.0813 1.4449.14624 2.1713.20656l4.145 6.9077a2.3288 2.3288 0 003.9952 0l4.1439-6.9077c.72674-.0603 1.4517-.12518 2.1724-.20656l5.4049 5.9588a2.3288 2.3288 0 003.9192-.7786l2.7161-7.5796c.70103-.20189 1.4017-.4045 2.0941-.62654l6.4605 4.7864a2.3288 2.3288 0 003.6922-1.5289l1.1884-7.987c.63823-.33079 1.275-.6637 1.9023-1.0124l7.297 3.447a2.3288 2.3288 0 003.3222-2.2201l-.39271-8.0926c.55234-.44117 1.0997-.88734 1.639-1.3438l7.8588 1.9647a2.3288 2.3288 0 002.825-2.825l-1.9647-7.8588c.4565-.53928.90269-1.0866 1.3438-1.639l8.0926.39272a2.3288 2.3288 0 002.2201-3.3222l-3.447-7.297c.34872-.62723.68163-1.264 1.0124-1.9023l7.987-1.1884a2.3288 2.3288 0 001.5289-3.6922l-4.7863-6.4605c.22202-.69235.42462-1.3931.62652-2.0941l7.5796-2.7161a2.3288 2.3288 0 00.77862-3.9192l-5.9588-5.4049c.0814-.72069.14623-1.4457.20658-2.1724l6.9077-4.1439a2.3288 2.3288 0 000-3.9952l-6.9077-4.1451c-.0603-.72635-.12524-1.451-.20658-2.1713l5.9588-5.4049a2.3288 2.3288 0 00-.77862-3.9203l-7.5796-2.7161c-.20184-.70082-.40457-1.4008-.62652-2.093l4.7863-6.4616a2.3288 2.3288 0 00-1.5289-3.6911l-7.987-1.1884c-.33084-.63836-.66362-1.2749-1.0124-1.9023l3.447-7.297a2.3288 2.3288 0 00-2.2201-3.3222l-8.0926.39271c-.44112-.55229-.8874-1.0997-1.3438-1.639l1.9647-7.8588a2.3288 2.3288 0 00-2.825-2.825l-7.8588 1.9647c-.53927-.4565-1.0866-.9027-1.639-1.3438l.39271-8.0937a2.3288 2.3288 0 00-3.3222-2.2201l-7.297 3.4482c-.62726-.34873-1.264-.68165-1.9023-1.0124l-1.1884-7.9871a2.3288 2.3288 0 00-3.6922-1.53l-6.4605 4.7875c-.69236-.22201-1.3931-.42463-2.0941-.62653l-2.7161-7.5796a2.3288 2.3288 0 00-3.9192-.77975l-5.406 5.9599c-.72032-.08133-1.4449-.14626-2.1713-.20657l-4.1439-6.9077a2.3288 2.3288 0 00-2.783-.99654zm.78543 14.613a4.657 4.657 0 014.6569 4.6569 4.657 4.657 0 01-4.6569 4.6569 4.657 4.657 0 01-4.6569-4.6569 4.657 4.657 0 014.6569-4.6569zm-10.998 8.0064 7.7056 7.7056a4.6575 4.6575 0 006.5853 0l7.7056-7.7056c17.959 3.3214 33.023 14.65 41.468 30.141l-4.943 9.6998a4.6575 4.6575 0 002.0351 6.263l9.7123 4.9486c.32157 2.5182.49487 5.0839.49487 7.692 0 15.934-6.1974 30.369-16.306 41.066l-10.796-1.7093a4.6575 4.6575 0 00-5.3277 3.8704l-1.7116 10.804c-7.7603 3.6739-16.443 5.734-25.624 5.734-9.1812 0-17.864-2.0608-25.625-5.7352l-1.7116-10.803a4.6575 4.6575 0 00-5.3277-3.8715l-10.795 1.7105c-10.108-10.697-16.306-25.132-16.306-41.066 0-2.608.1733-5.1738.49487-7.692l9.7111-4.9486a4.6575 4.6575 0 002.0351-6.263l-4.9418-9.6986c8.4449-15.492 23.508-26.821 41.468-30.142zm-47.923 34.902a4.657 4.657 0 011.3064.22587 4.657 4.657 0 012.9896 5.868 4.657 4.657 0 01-5.868 2.9907 4.657 4.657 0 01-2.9907-5.8691 4.657 4.657 0 014.5627-3.2155zm117.84 0a4.657 4.657 0 014.5616 3.2155 4.657 4.657 0 01-2.9896 5.8691 4.657 4.657 0 01-5.868-2.9907 4.657 4.657 0 012.9896-5.868 4.657 4.657 0 011.3064-.22587zm-95.153 69.428a4.657 4.657 0 012.4709.88189 4.657 4.657 0 011.0306 6.5047 4.657 4.657 0 01-6.5047 1.0306 4.657 4.657 0 01-1.0306-6.5047 4.657 4.657 0 014.0338-1.9125zm72.463 0a4.657 4.657 0 014.0338 1.9125 4.657 4.657 0 01-1.0306 6.5047 4.657 4.657 0 01-6.5047-1.0306 4.657 4.657 0 011.0306-6.5047 4.657 4.657 0 012.4709-.88189z"/>
 <path class="tw-fill-text-alt2" d="m304.87 145.51q7.8436 0 11.429 3.0814t3.5857 8.684q0 3.3055-1.5127 6.2189-1.4567 2.8573-4.9863 4.6502-3.4736 1.7928-9.4684 1.7928h-4.5941v15.575h-5.0423v-40.003zm-.44821 4.314h-5.0984v15.799h4.0339q5.7147 0 8.516-1.8489 2.8013-1.8488 2.8013-6.2749 0-3.8658-2.4652-5.7707-2.4651-1.9049-7.7876-1.9049zm34.456 5.1544q5.4906 0 8.1238 2.4091t2.6332 7.6756v20.449h-3.5857l-.95244-4.258h-.2241q-1.9609 2.4651-4.1459 3.6417-2.129 1.1765-5.9388 1.1765-4.0899 0-6.7792-2.129-2.6892-2.185-2.6892-6.7791 0-4.4821 3.5296-6.8912 3.5296-2.4651 10.869-2.6892l5.0984-.16808v-1.7928q0-3.7537-1.6248-5.2104t-4.5941-1.4567q-2.3531 0-4.4821.72834-2.129.67231-3.9778 1.5687l-1.5127-3.6977q1.9609-1.0645 4.6502-1.7928 2.6892-.78437 5.6026-.78437zm1.4567 16.023q-5.6026.2241-7.7876 1.7928-2.129 1.5687-2.129 4.426 0 2.5212 1.5127 3.6977 1.5687 1.1766 3.9778 1.1766 3.8098 0 6.3309-2.073 2.5212-2.129 2.5212-6.499v-2.6892zm38.154 6.2189q0 4.37-3.2495 6.6111-3.2495 2.241-8.7401 2.241-3.1375 0-5.4345-.50423-2.241-.50424-3.9778-1.4006v-4.4821q1.7928.89641 4.314 1.6808 2.5772.72834 5.2104.72834 3.7537 0 5.4345-1.1766 1.6808-1.2326 1.6808-3.2495 0-1.1205-.61628-2.0169-.61629-.89642-2.241-1.7928-1.5687-.89641-4.5381-2.0169-2.9134-1.1205-4.9863-2.241t-3.1935-2.6892-1.1205-4.0339q0-3.8098 3.0814-5.8827 3.1374-2.073 8.1798-2.073 2.7453 0 5.0984.56026 2.4091.50423 4.4821 1.4567l-1.6808 3.9218q-1.9049-.78436-3.9778-1.3446t-4.258-.56026q-3.0254 0-4.6502 1.0085-1.5687.95244-1.5687 2.6332 0 1.2326.72834 2.129.72834.84039 2.4091 1.6808 1.7368.78436 4.5941 1.9049 2.8573 1.0645 4.8743 2.185t3.0814 2.7453q1.0645 1.5687 1.0645 3.9778zm26.836 0q0 4.37-3.2495 6.6111t-8.74 2.241q-3.1375 0-5.4345-.50423-2.241-.50424-3.9778-1.4006v-4.4821q1.7928.89641 4.314 1.6808 2.5772.72834 5.2104.72834 3.7537 0 5.4345-1.1766 1.6808-1.2326 1.6808-3.2495 0-1.1205-.61629-2.0169-.61628-.89642-2.241-1.7928-1.5687-.89641-4.5381-2.0169-2.9134-1.1205-4.9863-2.241-2.073-1.1205-3.1935-2.6892t-1.1205-4.0339q0-3.8098 3.0814-5.8827 3.1375-2.073 8.1798-2.073 2.7453 0 5.0984.56026 2.4091.50423 4.4821 1.4567l-1.6808 3.9218q-1.9049-.78436-3.9778-1.3446t-4.258-.56026q-3.0254 0-4.6502 1.0085-1.5687.95244-1.5687 2.6332 0 1.2326.72833 2.129.72834.84039 2.4091 1.6808 1.7368.78436 4.5941 1.9049 2.8573 1.0645 4.8743 2.185 2.0169 1.1205 3.0814 2.7453 1.0645 1.5687 1.0645 3.9778zm26.668-8.684q-.72834-2.2971-1.2886-4.4821-.50424-2.241-.78437-3.4736h-.2241q-.2241 1.2326-.72834 3.4736-.50423 2.185-1.2886 4.5381l-5.3785 16.864h-5.6026l-8.2358-30.03h5.0984l4.1459 16.023q.61628 2.4091 1.1765 4.8743.56026 2.4651.78437 4.0899h.2241q.2241-.95245.50423-2.3531.33616-1.4006.72834-2.9134.39218-1.5687.78437-2.8013l5.3225-16.92h5.3785l5.1544 16.92q.61629 1.9049 1.1766 4.1459.61629 2.241.84039 3.8658h.2241q.16808-1.4006.72834-3.8658.61629-2.4652 1.2886-5.0423l4.202-16.023h5.0423l-8.3479 30.03h-5.7707zm50.76 1.9049q0 7.4515-3.8098 11.541-3.7537 4.0899-10.197 4.0899-3.9778 0-7.1153-1.7928-3.0814-1.8489-4.8743-5.3225-1.7928-3.5296-1.7928-8.516 0-7.4515 3.7537-11.485t10.197-4.0339q4.0899 0 7.1713 1.8488 3.1375 1.7928 4.8743 5.2664 1.7928 3.4176 1.7928 8.4039zm-22.691 0q0 5.3225 2.073 8.4599 2.129 3.0814 6.7231 3.0814 4.5381 0 6.6671-3.0814 2.129-3.1374 2.129-8.4599t-2.129-8.3479q-2.129-3.0254-6.7231-3.0254t-6.6671 3.0254q-2.073 3.0254-2.073 8.3479zm44.485-15.519q.84039 0 1.7928.11205 1.0085.056 1.7368.2241l-.61628 4.5381q-.72834-.16808-1.6248-.28013-.84039-.11205-1.6248-.11205-2.2971 0-4.314 1.2886-2.0169 1.2326-3.2495 3.5296-1.1766 2.241-1.1766 5.2664v16.023h-4.9303v-30.03h4.0339l.56026 5.4905h.2241q1.4567-2.4651 3.7537-4.258 2.2971-1.7928 5.4345-1.7928zm18.657 31.15q-5.6026 0-8.9642-3.8658-3.3616-3.9218-3.3616-11.653t3.3616-11.653q3.4176-3.9778 9.0202-3.9778 3.4736 0 5.6586 1.2886 2.241 1.2886 3.6417 3.1375h.33615q-.056-.72834-.2241-2.129-.11205-1.4567-.11205-2.2971v-11.99h4.9303v42.58h-3.9778l-.72834-4.0339h-.2241q-1.3446 1.9049-3.5857 3.2495-2.241 1.3446-5.7707 1.3446zm.78437-4.0899q4.7622 0 6.6671-2.5772 1.9609-2.6332 1.9609-7.8997v-.89641q0-5.6026-1.8488-8.572-1.8489-3.0254-6.8352-3.0254-3.9778 0-5.9948 3.1935-1.9609 3.1374-1.9609 8.4599 0 5.3785 1.9609 8.3479 2.0169 2.9694 6.0508 2.9694zm55.914 3.5296-13.166-35.072h-.2241q.16808 1.7368.28013 4.7062.11205 2.9134.11205 6.1068v24.259h-4.6502v-40.003h7.4515l12.326 32.775h.22411l12.55-32.775h7.3954v40.003h-4.9863v-24.595q0-2.9134.11205-5.7707.16808-2.8573.28013-4.6502h-.2241l-13.334 35.016zm43.868-30.534q5.4906 0 8.1238 2.4091t2.6332 7.6756v20.449h-3.5857l-.95244-4.258h-.22411q-1.9609 2.4651-4.1459 3.6417-2.129 1.1765-5.9388 1.1765-4.0899 0-6.7791-2.129-2.6892-2.185-2.6892-6.7791 0-4.4821 3.5296-6.8912 3.5296-2.4651 10.869-2.6892l5.0984-.16808v-1.7928q0-3.7537-1.6248-5.2104t-4.5941-1.4567q-2.3531 0-4.4821.72834-2.129.67231-3.9778 1.5687l-1.5127-3.6977q1.9609-1.0645 4.6502-1.7928 2.6892-.78437 5.6026-.78437zm1.4567 16.023q-5.6026.2241-7.7876 1.7928-2.129 1.5687-2.129 4.426 0 2.5212 1.5127 3.6977 1.5687 1.1766 3.9778 1.1766 3.8098 0 6.3309-2.073 2.5212-2.129 2.5212-6.499v-2.6892zm33.055-16.079q5.3785 0 8.1238 2.6332 2.7453 2.5772 2.7453 8.4039v19.553h-4.8743v-19.217q0-7.2274-6.7231-7.2274-4.9863 0-6.8912 2.8013t-1.9049 8.0677v15.575h-4.9303v-30.03h3.9778l.72834 4.0899h.28013q1.4567-2.3531 4.0339-3.4736 2.5772-1.1765 5.4345-1.1765zm31.543.056q5.4906 0 8.1238 2.4091t2.6332 7.6756v20.449h-3.5857l-.95245-4.258h-.2241q-1.9609 2.4651-4.1459 3.6417-2.129 1.1765-5.9388 1.1765-4.0899 0-6.7792-2.129-2.6892-2.185-2.6892-6.7791 0-4.4821 3.5296-6.8912 3.5296-2.4651 10.869-2.6892l5.0984-.16808v-1.7928q0-3.7537-1.6248-5.2104t-4.5941-1.4567q-2.3531 0-4.4821.72834-2.129.67231-3.9778 1.5687l-1.5127-3.6977q1.9609-1.0645 4.6502-1.7928 2.6892-.78437 5.6026-.78437zm1.4567 16.023q-5.6026.2241-7.7876 1.7928-2.129 1.5687-2.129 4.426 0 2.5212 1.5127 3.6977 1.5687 1.1766 3.9778 1.1766 3.8098 0 6.3309-2.073 2.5212-2.129 2.5212-6.499v-2.6892zm29.246-16.079q2.9694 0 5.3225 1.1205 2.4091 1.1205 4.0899 3.4176h.28013l.67231-3.9778h3.9218v30.534q0 6.443-3.3055 9.6925-3.2495 3.2495-10.141 3.2495-6.6111 0-10.813-1.9049v-4.5381q4.426 2.3531 11.093 2.3531 3.8658 0 6.0508-2.2971 2.241-2.241 2.241-6.1629v-1.1766q0-.67231.056-1.9049.056-1.2886.11205-1.7928h-.2241q-3.0254 4.5381-9.3003 4.5381-5.8267 0-9.1322-4.0899-3.2495-4.0899-3.2495-11.429 0-7.1713 3.2495-11.373 3.3055-4.258 9.0762-4.258zm.67232 4.1459q-3.7538 0-5.8267 3.0254-2.073 2.9694-2.073 8.516t2.0169 8.516q2.073 2.9134 5.9948 2.9134 4.5381 0 6.6111-2.4091 2.073-2.4651 2.073-7.8997v-1.1766q0-6.1629-2.129-8.7961-2.129-2.6892-6.6671-2.6892zm34.736-4.1459q3.8658 0 6.6111 1.6808 2.8013 1.6808 4.258 4.7622 1.5127 3.0254 1.5127 7.1153v2.9694h-20.562q.11206 5.0984 2.5772 7.7876 2.5212 2.6332 7.0032 2.6332 2.8573 0 5.0423-.50423 2.241-.56026 4.5941-1.5687v4.314q-2.2971 1.0085-4.5381 1.4567-2.241.50423-5.3225.50423-4.258 0-7.5635-1.7368-3.2495-1.7368-5.0984-5.1544-1.7928-3.4736-1.7928-8.4599 0-4.9303 1.6248-8.4599 1.6808-3.5296 4.6502-5.4345 3.0254-1.9049 7.0032-1.9049zm-.056 4.0339q-3.5296 0-5.6026 2.2971-2.0169 2.241-2.4091 6.2749h15.295q-.056-3.8098-1.7928-6.1629-1.7368-2.4091-5.4906-2.4091zm34.064-4.0339q.84039 0 1.7928.11205 1.0085.056 1.7368.2241l-.61629 4.5381q-.72834-.16808-1.6248-.28013-.84039-.11205-1.6248-.11205-2.2971 0-4.314 1.2886-2.0169 1.2326-3.2495 3.5296-1.1765 2.241-1.1765 5.2664v16.023h-4.9303v-30.03h4.0339l.56026 5.4905h.22411q1.4567-2.4651 3.7537-4.258 2.2971-1.7928 5.4345-1.7928z"/>
</svg>
