<svg version="1.1" viewBox="0 0 60 60" xmlns="http://www.w3.org/2000/svg">
 <title>Vaultwarden</title>
 <path class="tw-fill-marketing-logo" d="m18 11-5.6.00073 15 42h5.3l15-42h-5.6l-9.5 27c-.63 1.7-1.2 3.4-1.6 4.9-.43 1.5-.79 2.9-1.1 4.3-.28-1.4-.63-2.8-1.1-4.4-.43-1.5-.97-3.2-1.6-5l-9.5-27z"/>
 <path class="tw-fill-marketing-logo" d="m30 0.05c-0.19 0.068-0.34 0.2-0.44 0.37l-1.5 2.5c-0.27 0.022-0.53 0.046-0.8 0.076l-2-2.2c-0.43-0.44-1.2-0.29-1.4 0.29l-1 2.8c-0.26 0.074-0.51 0.15-0.77 0.23l-2.4-1.8c-0.52-0.45-1.3-0.12-1.4 0.56l-0.44 2.9c-0.23 0.12-0.47 0.24-0.7 0.37l-2.7-1.3c-0.58-0.26-1.2 0.18-1.2 0.81l0.14 3c-0.2 0.16-0.4 0.33-0.6 0.49l-2.9-0.72c-0.59-0.12-1.1 0.41-1 1l0.72 2.9c-0.17 0.2-0.33 0.4-0.49 0.6l-3-0.14c-0.63-0.027-1.1 0.62-0.81 1.2l1.3 2.7c-0.13 0.23-0.25 0.46-0.37 0.7l-2.9 0.44c-0.68 0.068-1 0.88-0.56 1.4l1.8 2.4c-0.081 0.25-0.16 0.51-0.23 0.77l-2.8 1c-0.58 0.22-0.73 0.97-0.29 1.4l2.2 2c-0.03 0.26-0.054 0.53-0.076 0.8l-2.5 1.5c-0.6 0.32-0.6 1.2 0 1.5l2.5 1.5c0.022 0.27 0.046 0.53 0.076 0.8l-2.2 2c-0.44 0.43-0.29 1.2 0.29 1.4l2.8 1c0.074 0.26 0.15 0.51 0.23 0.77l-1.8 2.4c-0.45 0.52-0.12 1.3 0.56 1.4l2.9 0.44c0.12 0.23 0.24 0.47 0.37 0.7l-1.3 2.7c-0.26 0.58 0.18 1.2 0.81 1.2l3-0.14c0.16 0.2 0.33 0.4 0.49 0.6l-0.72 2.9c-0.12 0.59 0.41 1.1 1 1l2.9-0.72c0.2 0.17 0.4 0.33 0.6 0.49l-0.14 3c-0.027 0.63 0.62 1.1 1.2 0.81l2.7-1.3c0.23 0.13 0.46 0.25 0.7 0.37l0.44 2.9c0.068 0.68 0.88 1 1.4 0.56l2.4-1.8c0.25 0.081 0.51 0.16 0.77 0.23l1 2.8c0.22 0.58 0.97 0.73 1.4 0.29l2-2.2c0.26 0.03 0.53 0.054 0.8 0.076l1.5 2.5c0.32 0.6 1.2 0.6 1.5 0l1.5-2.5c0.27-0.022 0.53-0.046 0.8-0.076l2 2.2c0.43 0.44 1.2 0.29 1.4-0.29l1-2.8c0.26-0.074 0.51-0.15 0.77-0.23l2.4 1.8c0.52 0.45 1.3 0.12 1.4-0.56l0.44-2.9c0.23-0.12 0.47-0.24 0.7-0.37l2.7 1.3c0.58 0.26 1.2-0.18 1.2-0.81l-0.14-3c0.2-0.16 0.4-0.33 0.6-0.49l2.9 0.72c0.59 0.12 1.1-0.41 1-1l-0.72-2.9c0.17-0.2 0.33-0.4 0.49-0.6l3 0.14c0.63 0.027 1.1-0.62 0.81-1.2l-1.3-2.7c0.13-0.23 0.25-0.46 0.37-0.7l2.9-0.44c0.68-0.068 1-0.88 0.56-1.4l-1.8-2.4c0.081-0.25 0.16-0.51 0.23-0.77l2.8-1c0.58-0.22 0.73-0.97 0.29-1.4l-2.2-2c0.03-0.26 0.054-0.53 0.076-0.8l2.5-1.5c0.6-0.32 0.6-1.2 0-1.5l-2.5-1.5c-0.022-0.27-0.046-0.53-0.076-0.8l2.2-2c0.44-0.43 0.29-1.2-0.29-1.4l-2.8-1c-0.074-0.26-0.15-0.51-0.23-0.77l1.8-2.4c0.45-0.52 0.12-1.3-0.56-1.4l-2.9-0.44c-0.12-0.23-0.24-0.47-0.37-0.7l1.3-2.7c0.26-0.58-0.18-1.2-0.81-1.2l-3 0.14c-0.16-0.2-0.33-0.4-0.49-0.6l0.72-2.9c0.12-0.59-0.41-1.1-1-1l-2.9 0.72c-0.2-0.17-0.4-0.33-0.6-0.49l0.14-3c0.027-0.63-0.62-1.1-1.2-0.81l-2.7 1.3c-0.23-0.13-0.46-0.25-0.7-0.37l-0.44-2.9c-0.068-0.68-0.88-1-1.4-0.56l-2.4 1.8c-0.25-0.081-0.51-0.16-0.77-0.23l-1-2.8c-0.22-0.58-0.97-0.73-1.4-0.29l-2 2.2c-0.26-0.03-0.53-0.054-0.8-0.076l-1.5-2.5c-0.2-0.34-0.62-0.5-1-0.37zm0.29 5.4c0.94 0 1.7 0.76 1.7 1.7s-0.76 1.7-1.7 1.7-1.7-0.76-1.7-1.7 0.76-1.7 1.7-1.7zm-4 2.9 2.8 2.8c0.66 0.66 1.7 0.66 2.4 0l2.8-2.8c6.6 1.2 12 5.4 15 11l-1.8 3.6c-0.43 0.84-0.097 1.9 0.75 2.3l3.6 1.8c0.12 0.92 0.18 1.9 0.18 2.8 0 5.8-2.3 11-6 15l-4-0.63c-0.94-0.18-1.8 0.45-2 1.4l-0.63 4c-2.8 1.3-6 2.1-9.4 2.1s-6.5-0.76-9.4-2.1l-0.63-4c-0.15-0.95-1.1-1.6-2-1.4l-4 0.63c-3.7-3.9-6-9.2-6-15 0-0.96 0.064-1.9 0.18-2.8l3.6-1.8c0.85-0.42 1.2-1.5 0.75-2.3l-1.8-3.6c3.1-5.7 8.6-9.8 15-11zm-18 13c0.16 0.0045 0.32 0.032 0.48 0.083 0.93 0.29 1.4 1.3 1.1 2.2-0.29 0.93-1.3 1.4-2.2 1.1-0.93-0.29-1.4-1.3-1.1-2.2 0.23-0.74 0.93-1.2 1.7-1.2zm43 0c0.77-0.034 1.5 0.46 1.7 1.2 0.33 0.91-0.17 1.9-1.1 2.2-0.91 0.33-1.9-0.17-2.2-1.1-0.33-0.91 0.17-1.9 1.1-2.2 0.16-0.051 0.32-0.079 0.48-0.083zm-35 25c0.33 0.017 0.64 0.13 0.91 0.32 0.78 0.55 0.95 1.6 0.38 2.4-0.55 0.78-1.6 0.95-2.4 0.38-0.78-0.55-0.95-1.6-0.38-2.4 0.34-0.48 0.91-0.74 1.5-0.7zm27 0c0.59-0.042 1.2 0.22 1.5 0.7 0.57 0.77 0.4 1.8-0.38 2.4-0.77 0.57-1.8 0.4-2.4-0.38-0.57-0.77-0.4-1.8 0.38-2.4 0.27-0.19 0.58-0.3 0.91-0.32z"/>
</svg>
